<svg id="visual" viewBox="0 0 900 200" width="900" height="200" xmlns="http://www.w3.org/2000/svg" xmlns:xlink="http://www.w3.org/1999/xlink" version="1.1"><rect x="0" y="0" width="900" height="200" fill="#001220"></rect><path d="M0 183L21.5 174.2C43 165.3 86 147.7 128.8 141.8C171.7 136 214.3 142 257.2 150.2C300 158.3 343 168.7 385.8 174.3C428.7 180 471.3 181 514.2 177.2C557 173.3 600 164.7 642.8 151.3C685.7 138 728.3 120 771.2 109.3C814 98.7 857 95.3 878.5 93.7L900 92L900 0L878.5 0C857 0 814 0 771.2 0C728.3 0 685.7 0 642.8 0C600 0 557 0 514.2 0C471.3 0 428.7 0 385.8 0C343 0 300 0 257.2 0C214.3 0 171.7 0 128.8 0C86 0 43 0 21.5 0L0 0Z" fill="#fa7268"></path><path d="M0 127L21.5 119C43 111 86 95 128.8 84.7C171.7 74.3 214.3 69.7 257.2 67.5C300 65.3 343 65.7 385.8 67.3C428.7 69 471.3 72 514.2 85.5C557 99 600 123 642.8 121.5C685.7 120 728.3 93 771.2 87C814 81 857 96 878.5 103.5L900 111L900 0L878.5 0C857 0 814 0 771.2 0C728.3 0 685.7 0 642.8 0C600 0 557 0 514.2 0C471.3 0 428.7 0 385.8 0C343 0 300 0 257.2 0C214.3 0 171.7 0 128.8 0C86 0 43 0 21.5 0L0 0Z" fill="#ef5f67"></path><path d="M0 76L21.5 80.5C43 85 86 94 128.8 89.5C171.7 85 214.3 67 257.2 67.3C300 67.7 343 86.3 385.8 96C428.7 105.7 471.3 106.3 514.2 99.3C557 92.3 600 77.7 642.8 73.3C685.7 69 728.3 75 771.2 73.5C814 72 857 63 878.5 58.5L900 54L900 0L878.5 0C857 0 814 0 771.2 0C728.3 0 685.7 0 642.8 0C600 0 557 0 514.2 0C471.3 0 428.7 0 385.8 0C343 0 300 0 257.2 0C214.3 0 171.7 0 128.8 0C86 0 43 0 21.5 0L0 0Z" fill="#e34c67"></path><path d="M0 56L21.5 57.7C43 59.3 86 62.7 128.8 59C171.7 55.3 214.3 44.7 257.2 38.7C300 32.7 343 31.3 385.8 30.2C428.7 29 471.3 28 514.2 34C557 40 600 53 642.8 55.7C685.7 58.3 728.3 50.7 771.2 49.5C814 48.3 857 53.7 878.5 56.3L900 59L900 0L878.5 0C857 0 814 0 771.2 0C728.3 0 685.7 0 642.8 0C600 0 557 0 514.2 0C471.3 0 428.7 0 385.8 0C343 0 300 0 257.2 0C214.3 0 171.7 0 128.8 0C86 0 43 0 21.5 0L0 0Z" fill="#d53867"></path><path d="M0 13L21.5 12.5C43 12 86 11 128.8 18.2C171.7 25.3 214.3 40.7 257.2 41.2C300 41.7 343 27.3 385.8 23.3C428.7 19.3 471.3 25.7 514.2 31.3C557 37 600 42 642.8 42.5C685.7 43 728.3 39 771.2 32.7C814 26.3 857 17.7 878.5 13.3L900 9L900 0L878.5 0C857 0 814 0 771.2 0C728.3 0 685.7 0 642.8 0C600 0 557 0 514.2 0C471.3 0 428.7 0 385.8 0C343 0 300 0 257.2 0C214.3 0 171.7 0 128.8 0C86 0 43 0 21.5 0L0 0Z" fill="#c62368"></path></svg>