<svg id="visual" viewBox="0 0 900 600" width="900" height="600" xmlns="http://www.w3.org/2000/svg" xmlns:xlink="http://www.w3.org/1999/xlink" version="1.1"><rect x="0" y="0" width="900" height="600" fill="#101010"></rect><path d="M0 112L25 104.2C50 96.3 100 80.7 150 86.3C200 92 250 119 300 139.7C350 160.3 400 174.7 450 164.7C500 154.7 550 120.3 600 120.3C650 120.3 700 154.7 750 179.8C800 205 850 221 875 229L900 237L900 0L875 0C850 0 800 0 750 0C700 0 650 0 600 0C550 0 500 0 450 0C400 0 350 0 300 0C250 0 200 0 150 0C100 0 50 0 25 0L0 0Z" fill="#0066FF" stroke-linecap="round" stroke-linejoin="miter"></path></svg>